<?xml version="1.0" encoding="UTF-8" standalone="no"?>
<svg
   xmlns:dc="http://purl.org/dc/elements/1.1/"
   xmlns:cc="http://creativecommons.org/ns#"
   xmlns:rdf="http://www.w3.org/1999/02/22-rdf-syntax-ns#"
   xmlns:svg="http://www.w3.org/2000/svg"
   xmlns="http://www.w3.org/2000/svg"
   xmlns:sodipodi="http://sodipodi.sourceforge.net/DTD/sodipodi-0.dtd"
   xmlns:inkscape="http://www.inkscape.org/namespaces/inkscape"
   version="1.1"
   x="0px"
   y="0px"
   viewBox="0 0 92.623998 81.235"
   enable-background="new 0 0 100 100"
   xml:space="preserve"
   id="svg2"
   inkscape:version="0.91 r13725"
   sodipodi:docname="noun_dataexport_cc.svg"
   width="92.624001"
   height="81.235001"
   inkscape:export-filename="C:\Users\fff00\Downloads\noun_dataexport_cc.png"
   inkscape:export-xdpi="388.20001"
   inkscape:export-ydpi="388.20001"><metadata
     id="metadata24"><rdf:RDF><cc:Work
         rdf:about=""><dc:format>image/svg+xml</dc:format><dc:type
           rdf:resource="http://purl.org/dc/dcmitype/StillImage" /><dc:title></dc:title></cc:Work></rdf:RDF></metadata><defs
     id="defs22" /><sodipodi:namedview
     pagecolor="#ffffff"
     bordercolor="#666666"
     borderopacity="1"
     objecttolerance="10"
     gridtolerance="10"
     guidetolerance="10"
     inkscape:pageopacity="0"
     inkscape:pageshadow="2"
     inkscape:window-width="1368"
     inkscape:window-height="849"
     id="namedview20"
     showgrid="false"
     fit-margin-top="2"
     fit-margin-left="2"
     fit-margin-right="2"
     fit-margin-bottom="2"
     inkscape:zoom="5.3400704"
     inkscape:cx="43.561754"
     inkscape:cy="50.056098"
     inkscape:window-x="-8"
     inkscape:window-y="-8"
     inkscape:window-maximized="1"
     inkscape:current-layer="svg2"
     showborder="false" /><g
     id="g4"
     transform="translate(-3.688,-9.383)"><path
       d="m 64.204,73.564 c 0,8.314 6.74,15.054 15.053,15.054 8.314,0 15.055,-6.74 15.055,-15.054 0,-8.313 -6.74,-15.054 -15.055,-15.054 -8.313,0 -15.053,6.74 -15.053,15.054 z m 4.891,2.69 0.009,-5.44 10.634,0.001 0,-6.89 9.67,9.669 -9.596,9.607 -0.064,-6.948 -10.653,0.001 z"
       id="path6"
       inkscape:connector-curvature="0" /><g
       id="g8"><path
         d="m 44.158,66.547 c 6.154,0 11.996,-0.453 17.142,-1.258 3.136,-6.763 9.962,-11.465 17.895,-11.465 1.15,0 2.226,0.099 3.347,0.289 l 0,-9.199 c 0,-1.262 -0.677,-2.341 -1.757,-3.606 -4.866,4.868 -19.449,8.474 -36.575,8.474 -17.123,0 -31.789,-3.605 -36.836,-8.474 -0.9,1.265 -1.685,2.345 -1.685,3.606 l 0,9.556 c -0.001,6.67 17.378,12.077 38.469,12.077 z"
         id="path10"
         inkscape:connector-curvature="0" /><path
         d="m 44.113,44.914 c 21.273,0 38.429,-5.408 38.429,-11.898 l 0,-9.735 c 0,-6.488 -17.155,-11.898 -38.429,-11.898 -21.09,0 -38.425,5.411 -38.425,11.898 l 0,9.735 c 0,6.49 17.335,11.898 38.425,11.898 z"
         id="path12"
         inkscape:connector-curvature="0" /><path
         d="m 59.517,73.564 c 0,-1.088 0.09,-2.155 0.261,-3.197 -4.758,0.672 -10.021,1.048 -15.546,1.048 -17.123,0 -31.8,-3.606 -36.847,-8.473 -0.901,1.261 -1.696,2.344 -1.696,3.605 l 0,9.554 c 0,6.672 17.379,12.08 38.47,12.08 7.359,0 14.257,-0.648 20.087,-1.771 -2.97,-3.454 -4.729,-7.944 -4.729,-12.846 z"
         id="path14"
         inkscape:connector-curvature="0" /></g></g></svg>