<svg xmlns="http://www.w3.org/2000/svg" xmlns:xlink="http://www.w3.org/1999/xlink" version="1.1" x="0px" y="0px" viewBox="0 0 100 125" enable-background="new 0 0 100 100" xml:space="preserve"><g><path d="M64.926,89.898c-0.172-0.688-0.861-1.034-1.552-1.034c-0.343,0.172-11.561,0.691-21.054-13.632   c-2.072-2.933-4.139-6.557-6.557-11.218l11.389-5.694c0.519-0.344,0.863-0.863,0.863-1.38c0-0.689-0.172-1.206-0.863-1.551   l-34.34-19.156c-0.516-0.347-1.034-0.347-1.555,0c-0.517,0.174-0.689,0.691-0.861,1.207l-4.83,39.171v0.173   c0,0.517,0.346,1.035,0.688,1.207c0.518,0.349,1.035,0.52,1.553,0.175l10.529-5.351c4.141,5.867,22.949,30.713,45.9,19.156   c0.689-0.346,1.034-1.211,0.861-1.901L64.926,89.898z"/><path d="M93.743,22.083c-0.517-0.518-1.033-0.518-1.551-0.172l-10.701,5.351C78.212,22.428,65.27,5.172,48.189,5h-0.174   c-3.967,0-8.112,0.863-12.252,3.107c-0.691,0.346-1.035,1.034-0.861,1.897c0,0,0,0.174,0.171,0.174   c0.175,0.518,0.864,1.036,1.38,0.863c0.518,0,11.736-0.517,21.227,13.804c2.068,2.935,4.141,6.558,6.557,11.22l-11.391,5.691   c-0.518,0.344-0.863,0.866-1.034,1.381c0.171,0.691,0.343,1.209,0.861,1.38l34.514,19.327c0.517,0.172,1.032,0.346,1.553,0   c0.346-0.172,0.69-0.689,0.861-1.205l4.831-39.172C94.433,22.945,94.261,22.255,93.743,22.083z"/></g><text x="0" y="115" fill="#000000" font-size="5px" font-weight="bold" font-family="'Helvetica Neue', Helvetica, Arial-Unicode, Arial, Sans-serif">Created by Vladimir Belochkin</text><text x="0" y="120" fill="#000000" font-size="5px" font-weight="bold" font-family="'Helvetica Neue', Helvetica, Arial-Unicode, Arial, Sans-serif">from the Noun Project</text></svg>